<svg width="73" height="73" viewBox="0 0 73 73" fill="none" xmlns="http://www.w3.org/2000/svg">
<path d="M36.5 40.7584L21.5958 55.6626C21.0382 56.2202 20.3285 56.499 19.4667 56.499C18.6049 56.499 17.8951 56.2202 17.3375 55.6626C16.7799 55.1049 16.501 54.3952 16.501 53.5334C16.501 52.6716 16.7799 51.9619 17.3375 51.4042L32.2417 36.5001L17.3375 21.5959C16.7799 21.0383 16.501 20.3285 16.501 19.4667C16.501 18.6049 16.7799 17.8952 17.3375 17.3376C17.8951 16.7799 18.6049 16.5011 19.4667 16.5011C20.3285 16.5011 21.0382 16.7799 21.5958 17.3376L36.5 32.2417L51.4042 17.3376C51.9618 16.7799 52.6715 16.5011 53.5333 16.5011C54.3951 16.5011 55.1049 16.7799 55.6625 17.3376C56.2201 17.8952 56.499 18.6049 56.499 19.4667C56.499 20.3285 56.2201 21.0383 55.6625 21.5959L40.7583 36.5001L55.6625 51.4042C56.2201 51.9619 56.499 52.6716 56.499 53.5334C56.499 54.3952 56.2201 55.1049 55.6625 55.6626C55.1049 56.2202 54.3951 56.499 53.5333 56.499C52.6715 56.499 51.9618 56.2202 51.4042 55.6626L36.5 40.7584Z" fill="black"/>
</svg>
