<svg width="38" height="38" viewBox="0 0 38 38" fill="none" xmlns="http://www.w3.org/2000/svg">
<circle cx="19" cy="19" r="18.5" transform="matrix(-1 0 0 1 38 0)" fill="#EDF1D6" stroke="#40513B"/>
<g clip-path="url(#clip0_630_121)">
<path d="M19.7048 11.4967C19.9613 11.2403 20.3092 11.0962 20.672 11.0962C21.0347 11.0962 21.3826 11.2403 21.6392 11.4967L27.7952 17.6527C28.0516 17.9093 28.1957 18.2572 28.1957 18.6199C28.1957 18.9826 28.0516 19.3305 27.7952 19.5871L21.6392 25.7431C21.3811 25.9923 21.0356 26.1302 20.6769 26.127C20.3182 26.1239 19.9751 25.98 19.7215 25.7264C19.4678 25.4728 19.324 25.1297 19.3208 24.771C19.3177 24.4123 19.4556 24.0667 19.7048 23.8087L23.408 19.9879H10.412C10.0492 19.9879 9.7012 19.8438 9.44465 19.5872C9.1881 19.3307 9.04398 18.9827 9.04398 18.6199C9.04398 18.2571 9.1881 17.9091 9.44465 17.6526C9.7012 17.396 10.0492 17.2519 10.412 17.2519H23.408L19.7048 13.4311C19.4483 13.1745 19.3043 12.8266 19.3043 12.4639C19.3043 12.1012 19.4483 11.7533 19.7048 11.4967Z" fill="#40513B"/>
</g>
<defs>
<clipPath id="clip0_630_121">
<rect width="20.52" height="20.52" fill="white" transform="translate(8.35999 8.35986)"/>
</clipPath>
</defs>
</svg>
