<svg width="38" height="38" viewBox="0 0 38 38" fill="none" xmlns="http://www.w3.org/2000/svg">
<circle cx="19" cy="19" r="18.5" transform="matrix(-1 0 0 1 38 0)" fill="white" stroke="#40513B"/>
<path fill-rule="evenodd" clip-rule="evenodd" d="M25.848 25.4283L15.6355 18.62L25.848 11.8116C25.9821 11.7222 26.0973 11.6073 26.187 11.4733C26.2767 11.3394 26.3391 11.1891 26.3707 11.0311C26.4023 10.873 26.4025 10.7103 26.3712 10.5522C26.3399 10.3941 26.2778 10.2437 26.1884 10.1095C26.0078 9.83869 25.7271 9.65066 25.4079 9.58682C25.2498 9.55521 25.0871 9.55504 24.9289 9.58632C24.7708 9.6176 24.6204 9.67972 24.4863 9.76913L12.9094 17.4871C12.7229 17.6114 12.57 17.7799 12.4643 17.9775C12.3585 18.1751 12.3032 18.3958 12.3032 18.62C12.3032 18.8441 12.3585 19.0648 12.4643 19.2624C12.57 19.4601 12.7229 19.6285 12.9094 19.7529L24.4863 27.4708C24.6204 27.5602 24.7708 27.6223 24.9289 27.6536C25.0871 27.6849 25.2498 27.6847 25.4079 27.6531C25.5659 27.6215 25.7162 27.5591 25.8501 27.4694C25.984 27.3797 26.099 27.2645 26.1884 27.1304C26.2778 26.9963 26.3399 26.8459 26.3712 26.6877C26.4025 26.5296 26.4023 26.3669 26.3707 26.2088C26.3391 26.0508 26.2767 25.9005 26.187 25.7666C26.0973 25.6327 25.9821 25.5177 25.848 25.4283Z" fill="#40513B"/>
</svg>
