<svg width="32" height="32" viewBox="0 0 32 32" fill="none" xmlns="http://www.w3.org/2000/svg">
<path d="M15.6843 10.4562C15.6843 10.4562 15.6843 10.4562 14.691 9.14921C13.5408 7.63306 11.8417 6.53516 9.80269 6.53516C6.5482 6.53516 3.92108 9.16228 3.92108 12.4168C3.92108 13.6323 4.28705 14.7563 4.91442 15.6843C5.97311 17.2658 15.6843 27.4476 15.6843 27.4476M15.6843 10.4562C15.6843 10.4562 15.6843 10.4562 16.6776 9.14921C17.8278 7.63306 19.527 6.53516 21.5659 6.53516C24.8204 6.53516 27.4475 9.16228 27.4475 12.4168C27.4475 13.6323 27.0816 14.7563 26.4542 15.6843C25.3955 17.2658 15.6843 27.4476 15.6843 27.4476" stroke="white" stroke-width="2" stroke-linecap="round" stroke-linejoin="round"/>
</svg>
