<svg width="165" height="54" viewBox="0 0 165 54" fill="none" xmlns="http://www.w3.org/2000/svg">
<g clip-path="url(#clip0_219_220)">
<path d="M31.6495 25.2745C32.2072 25.3416 32.2672 25.3659 32.6706 25.7561C33.3792 27.4133 32.977 33.6463 32.8195 35.6696C35.3291 34.3483 37.1536 33.478 40.0985 34.1121C48.3602 35.8911 43.0816 45.4949 46.1556 50.3082C46.6825 50.5133 46.4467 50.5076 47.0354 50.2707C48.4349 48.4977 47.974 42.2536 47.8219 39.8343L45.9348 37.4418C47.4327 35.9881 52.21 33.9901 54.1348 33.9794C56.9118 35.705 52.8794 49.4896 56.5919 50.0123C58.1616 49.0144 57.7235 41.7726 57.7363 39.8963C57.6684 37.3038 57.7784 34.6519 57.5254 32.0728C57.4407 31.2095 55.7204 29.3327 56.2038 28.5454C57.2465 26.8482 60.4475 26.3926 62.2199 25.633C62.9436 25.3229 63.7904 25.3318 64.4203 25.7649C65.2816 27.5445 64.1536 44.5982 64.8416 47.8946C65.0375 48.834 65.1558 49.7589 65.9691 50.3323L66.304 50.1303C67.6343 47.8478 67.2751 42.6685 66.9991 39.9747C66.4338 39.171 65.7448 38.6242 65.4878 37.6469C65.5556 37.2946 65.5446 37.0047 65.7999 36.7781C67.1085 35.6164 71.7141 34.0923 73.3542 33.9526C75.4179 34.703 73.2173 46.6575 74.6608 49.446C75.2147 49.8816 74.9481 49.7897 75.6671 49.7795C78.4117 47.9575 76.9395 35.7974 77.2063 32.564C77.2716 31.7714 75.736 28.385 74.5968 28.1906C73.8055 30.1713 72.0892 32.7423 69.6888 32.9025C68.1962 33.0021 66.337 31.2227 66.4521 29.6514C66.0799 27.3096 70.9157 24.3609 72.6067 25.4598C75.6137 27.4135 74.2832 25.7033 76.7754 25.7178C82.6396 25.7523 88.7274 25.6089 94.5886 25.9431C95.0818 26.4069 95.5803 26.8729 96.0825 27.3219C96.1012 27.3811 96.5461 27.6065 96.5746 27.5771C98.3275 25.7781 100.516 23.9735 102.843 26.1127C103.365 26.593 103.795 27.7094 103.772 28.4134C103.744 29.3069 103.113 30.2497 102.496 30.8508C101.239 32.1618 97.8494 33.4588 96.0559 33.5087C94.2673 33.5585 93.5136 31.2097 92.614 30.3217C91.152 28.8786 88.5731 29.0398 86.7024 29.0771C86.1813 29.0718 84.762 29.0635 84.8042 29.7655C84.908 31.4902 83.9209 37.7094 86.1406 38.1635C88.1301 38.5703 90.3238 35.3584 91.8184 34.4704L92.2065 34.6772C93.1497 36.0204 92.8591 38.9874 92.9099 40.6437C92.9461 41.8208 93.0227 43.8505 91.6033 44.0535C90.1064 43.5033 89.607 42.2858 88.7476 40.9125C87.9482 40.9044 85.2457 40.7777 84.9746 41.5869C84.4444 43.1697 84.5361 46.8754 85.1136 48.438C85.4214 49.2704 87.0407 50.2181 87.4294 51.595C87.3662 51.7975 87.3324 52.0519 87.1688 52.1648C85.4957 53.3186 80.9125 52.9154 78.8979 52.9133L66.8459 52.8875C60.416 52.9271 53.9858 52.9177 47.5559 52.8598C46.0801 52.8581 37.0113 53.2409 36.2055 52.3601C36.2144 51.1121 37.4143 49.7446 38.1684 48.7433C38.2777 46.931 38.9684 38.2387 36.244 38.1104C31.8082 37.9015 32.7049 45.4095 33.1525 48.1281C33.4083 49.6805 35.0061 51.2482 34.7697 52.5603C33.5962 53.3124 25.6076 53.0858 24.2116 52.3075C23.6229 51.0503 25.611 49.3861 25.6762 48.5013C25.8781 45.7516 25.9983 39.4958 25.7974 36.8782C25.1902 39.0095 24.8759 40.5202 23.2503 42.1959C20.3652 45.1701 14.067 45.178 10.1366 45.189C10.7147 48.4093 12.1654 49.1831 13.0159 52.0772C13.0527 52.2022 12.7427 52.4251 12.6269 52.5324C10.8206 53.0805 1.26777 53.4319 0.175364 52.0859C-0.00336921 49.9983 2.64891 49.6756 2.76168 47.0234C2.9685 41.6823 3.13958 35.9774 2.60848 30.6721C2.50975 29.6861 -0.267215 28.4193 0.185577 26.6282C2.11483 24.7514 17.6623 25.5872 20.628 27.6785C24.5729 30.4603 24.9363 32.7001 25.9123 36.9736C25.8764 35.112 25.8538 33.2499 25.8445 31.3878C25.254 30.5931 24.5197 29.7227 23.8924 28.9408C25.8719 26.8327 28.8829 26.3165 31.6495 25.2745ZM16.5071 40.9332C17.8025 39.4025 18.4072 37.9413 18.1459 35.9376C17.514 31.0915 15.3843 28.6121 10.6053 28.7031C9.99719 30.8037 10.2806 39.3484 10.8638 41.6231C11.136 42.6843 15.5154 41.8067 16.5071 40.9332Z" fill="#42523E"/>
<path d="M138.293 34.3534C138.17 30.1144 136.677 30.6141 136.327 28.6649C137.218 27.3871 143.329 25.0263 144.615 25.4121C146.338 27.2026 143.646 47.4494 146.381 48.9141C146.512 48.3076 146.82 46.7305 147.255 46.3593C151.061 43.1105 152.61 50.8905 155.748 50.747C156.319 50.5299 156.671 50.3365 156.984 49.7669C157.229 49.3128 157.273 48.7765 157.104 48.2887C155.893 44.6729 148.397 45.7927 146.639 39.5659C147.15 37.8693 147.593 36.3078 149.258 35.3186C152.601 33.3327 160.57 33.1291 162.958 36.7572C163.884 38.1641 163.729 39.836 162.222 40.7909C158.222 43.325 157.701 34.8363 154.276 37.3515C151.71 41.9618 165.089 42.8896 164.544 47.5131C163.672 54.914 151.922 54.6196 147.415 50.5451L147.327 50.5989C144.605 52.2427 140.493 54.7805 138.181 51.4373C136.451 51.8278 135.469 53.2219 133.755 53.3606C131.89 53.5114 129.066 52.7414 127.769 51.3072C127.139 50.6113 126.562 49.631 125.887 49.1088L125.7 49.2913C126.168 50.4279 127.238 51.4243 126.722 52.5528C125.172 53.1799 117.343 53.3094 116.161 52.166C116.344 50.99 117.812 48.9335 117.932 48.3652C118.322 45.7448 118.408 42.2655 117.578 39.7378C116.733 37.1628 113.46 37.9498 113.032 40.4062C112.57 43.06 112.542 46.2677 113.035 48.9104C113.252 50.07 115.199 50.9291 114.546 52.4972C114.452 52.5386 114.357 52.5775 114.26 52.6125C112.757 53.1574 96.385 53.2264 95.2071 52.5967C94.8017 52.3801 94.7937 52.1909 94.6492 51.7813C94.8111 50.5378 95.6899 49.6027 96.4514 48.5626C96.605 46.0178 96.5791 42.9405 96.3629 40.4145C96.2463 39.053 94.5053 38.7362 94.6866 37.059C95.396 35.9444 101.834 33.6831 102.787 34.0107C104.538 36.1757 102.275 49.0493 104.557 50.1156L105.009 49.9169C106.203 48.5895 105.739 41.9185 105.691 39.709C104.804 38.7497 103.429 37.8985 103.891 36.6437C105.112 35.4016 110.073 33.1938 111.592 34.2094C112.023 34.9718 112.003 35.2163 112.045 36.0994C112.626 36.0132 113.794 34.7907 114.418 34.5901C121.479 32.3169 124.752 35.2887 125.373 42.099C125.233 43.561 124.908 47.3534 125.428 48.6188L125.635 48.5411C126.001 47.3233 125.835 43.309 125.464 42.1852C126.189 40.5557 126.161 39.7864 127.381 38.2137C130.259 34.503 133.804 33.2358 138.293 34.3534ZM136.153 49.1526C137.159 48.5554 137.668 48.15 137.943 46.9412C138.477 44.6018 138.212 40.9617 137.609 38.6766C136.334 37.3036 136.075 36.8066 134.067 37.025C130.29 39.4432 131.234 48.4039 136.153 49.1526Z" fill="#42523E"/>
<path d="M70.434 14.1499C73.8678 5.34145 80.9701 0.264034 90.6405 0.672366C96.4144 0.916257 100.66 3.26273 104.498 7.53839C113.958 5.88802 120.222 8.30052 123.521 18.0415C123.729 18.6575 123.822 19.1855 124.099 19.7917L124.636 19.9325L124.709 20.4105C124.439 20.7256 123.825 21.3578 123.818 21.7603C123.567 21.9978 123.342 22.0703 123.025 22.2279C122.221 21.8886 122.259 21.346 122.125 20.5136C121.876 18.9638 121.514 17.66 120.818 16.2403C119.187 12.9717 116.333 10.4796 112.877 9.30548C109.864 8.30883 106.766 8.79086 103.996 10.214C96.7078 -0.49554 81.4608 0.168396 74.4591 10.7746C73.331 12.4833 72.7441 13.9577 71.9892 15.8635C69.8091 16.085 67.8762 16.2397 65.8593 17.2193C64.3234 17.965 63.1653 20.1193 61.5622 20.2031C61.3433 19.9656 61.1867 19.8965 61.1873 19.5621C61.1937 15.7399 67.6792 14.4364 70.434 14.1499Z" fill="#086961"/>
<path d="M144.105 5.4716C145.124 4.4758 145.95 3.44549 147.359 3.2295L147.818 3.42142C148.251 4.70137 146.715 6.22287 145.934 7.07446C146.358 8.53909 147.403 11.4402 146.754 12.7555L146.36 12.8548C145.115 12.1044 144.484 10.3053 143.869 8.97256L141.573 11.0295C141.33 11.9352 141.162 12.7811 140.643 13.5654L140.066 13.3015C140.2 11.7372 138.315 11.4539 138.021 10.1871C138.68 9.62755 139.246 10.0533 139.522 9.91361C140.403 9.46758 141.792 8.03832 142.508 7.35414C140.862 6.96967 139.547 6.81715 138.313 5.63242L138.293 5.32696C139.542 4.25704 142.667 5.15422 144.105 5.4716Z" fill="#086961"/>
<path d="M51.9117 25.3429C56.7603 25.0121 56.2079 31.0152 51.1321 32.6852C45.8335 32.9919 46.4101 26.1089 51.9117 25.3429Z" fill="#42523E"/>
<path d="M140.066 13.3015L140.643 13.5654C136.96 23.8248 131.69 19.8893 123.818 21.7603C123.825 21.3578 124.439 20.7256 124.709 20.4105L124.636 19.9325C128.112 18.7766 131.177 20.4919 134.55 18.9985C137.196 17.8266 137.938 15.2113 139.986 13.3722L140.066 13.3015Z" fill="#086961"/>
<path d="M125.373 42.0989L125.464 42.1852C125.835 43.309 126.001 47.3233 125.635 48.5411L125.428 48.6188C124.908 47.3534 125.233 43.561 125.373 42.0989Z" fill="#B5BCB7" fill-opacity="0.866667"/>
<path d="M110.628 16.4902C111.942 16.632 112.361 17.2729 112.908 18.3499C111.462 18.2432 111.367 17.6585 110.628 16.4902Z" fill="#FCFCFE" fill-opacity="0.529412"/>
</g>
<defs>
<clipPath id="clip0_219_220">
<rect width="165" height="54" fill="white"/>
</clipPath>
</defs>
</svg>
