<svg width="38" height="38" viewBox="0 0 38 38" fill="none" xmlns="http://www.w3.org/2000/svg">
<circle cx="19" cy="19" r="19" fill="#40513B"/>
<path fill-rule="evenodd" clip-rule="evenodd" d="M12.2753 25.4283L22.4878 18.62L12.2753 11.8116C12.1412 11.7222 12.026 11.6073 11.9363 11.4733C11.8466 11.3394 11.7842 11.1891 11.7526 11.0311C11.721 10.873 11.7208 10.7103 11.7521 10.5522C11.7834 10.3941 11.8455 10.2437 11.9349 10.1095C12.1155 9.83869 12.3962 9.65066 12.7154 9.58682C12.8735 9.55521 13.0362 9.55504 13.1943 9.58632C13.3525 9.6176 13.5029 9.67972 13.637 9.76913L25.2139 17.4871C25.4004 17.6114 25.5533 17.7799 25.659 17.9775C25.7648 18.1751 25.8201 18.3958 25.8201 18.62C25.8201 18.8441 25.7648 19.0648 25.659 19.2624C25.5533 19.4601 25.4004 19.6285 25.2139 19.7529L13.637 27.4708C13.5029 27.5602 13.3525 27.6223 13.1943 27.6536C13.0362 27.6849 12.8735 27.6847 12.7154 27.6531C12.5574 27.6215 12.4071 27.5591 12.2732 27.4694C12.1393 27.3797 12.0243 27.2645 11.9349 27.1304C11.8455 26.9963 11.7834 26.8459 11.7521 26.6877C11.7208 26.5296 11.721 26.3669 11.7526 26.2088C11.7842 26.0508 11.8466 25.9005 11.9363 25.7666C12.026 25.6327 12.1412 25.5177 12.2753 25.4283Z" fill="white"/>
</svg>
